<svg preserveAspectRatio="none" width="100%" height="100%" overflow="visible" style="display: block;" viewBox="0 0 25 25" fill="none" xmlns="http://www.w3.org/2000/svg">
<g id="Frame">
<path id="Vector" d="M20.3125 3.125H7.8125C7.3981 3.125 7.00067 3.28962 6.70765 3.58265C6.41462 3.87567 6.25 4.2731 6.25 4.6875V6.25H4.6875C4.2731 6.25 3.87567 6.41462 3.58265 6.70765C3.28962 7.00067 3.125 7.3981 3.125 7.8125V20.3125C3.125 20.7269 3.28962 21.1243 3.58265 21.4174C3.87567 21.7104 4.2731 21.875 4.6875 21.875H17.1875C17.6019 21.875 17.9993 21.7104 18.2924 21.4174C18.5854 21.1243 18.75 20.7269 18.75 20.3125V18.75H20.3125C20.7269 18.75 21.1243 18.5854 21.4174 18.2924C21.7104 17.9993 21.875 17.6019 21.875 17.1875V4.6875C21.875 4.2731 21.7104 3.87567 21.4174 3.58265C21.1243 3.28962 20.7269 3.125 20.3125 3.125ZM7.8125 4.6875H20.3125V11.4629L18.6816 9.83203C18.3886 9.53923 17.9914 9.37475 17.5771 9.37475C17.1629 9.37475 16.7657 9.53923 16.4727 9.83203L9.11816 17.1875H7.8125V4.6875ZM17.1875 20.3125H4.6875V7.8125H6.25V17.1875C6.25 17.6019 6.41462 17.9993 6.70765 18.2924C7.00067 18.5854 7.3981 18.75 7.8125 18.75H17.1875V20.3125ZM20.3125 17.1875H11.3281L17.5781 10.9375L20.3125 13.6719V17.1875ZM11.7188 10.9375C12.1823 10.9375 12.6354 10.8 13.0209 10.5425C13.4063 10.285 13.7067 9.91893 13.8841 9.49066C14.0615 9.0624 14.1079 8.59115 14.0175 8.13651C13.927 7.68186 13.7038 7.26425 13.376 6.93647C13.0483 6.60869 12.6306 6.38547 12.176 6.29503C11.7213 6.2046 11.2501 6.25101 10.8218 6.42841C10.3936 6.6058 10.0275 6.9062 9.76999 7.29163C9.51246 7.67706 9.375 8.1302 9.375 8.59375C9.375 9.21535 9.62193 9.81149 10.0615 10.251C10.501 10.6906 11.0971 10.9375 11.7188 10.9375ZM11.7188 7.8125C11.8733 7.8125 12.0243 7.85832 12.1528 7.94416C12.2813 8.03001 12.3814 8.15202 12.4405 8.29478C12.4997 8.43753 12.5151 8.59462 12.485 8.74616C12.4548 8.89771 12.3804 9.03692 12.2712 9.14618C12.1619 9.25544 12.0227 9.32984 11.8712 9.35999C11.7196 9.39013 11.5625 9.37466 11.4198 9.31553C11.277 9.2564 11.155 9.15627 11.0692 9.02779C10.9833 8.89931 10.9375 8.74827 10.9375 8.59375C10.9375 8.38655 11.0198 8.18784 11.1663 8.04132C11.3128 7.89481 11.5115 7.8125 11.7188 7.8125Z" fill="var(--fill-0, #193495)"/>
</g>
</svg>
