<svg preserveAspectRatio="none" width="100%" height="100%" overflow="visible" style="display: block;" viewBox="0 0 40.9091 40.9091" fill="none" xmlns="http://www.w3.org/2000/svg">
<g id="Frame">
<path id="Vector" d="M33.3169 30.6035C33.6772 30.9638 33.8796 31.4524 33.8796 31.9618C33.8796 32.4713 33.6772 32.9599 33.3169 33.3201C32.9567 33.6804 32.4681 33.8828 31.9586 33.8828C31.4492 33.8828 30.9606 33.6804 30.6003 33.3201L20.4545 23.1712L10.3056 33.3169C9.94533 33.6772 9.45673 33.8796 8.94727 33.8796C8.4378 33.8796 7.9492 33.6772 7.58896 33.3169C7.22871 32.9567 7.02633 32.4681 7.02633 31.9586C7.02633 31.4492 7.22871 30.9606 7.58896 30.6003L17.7379 20.4545L7.59215 10.3056C7.23191 9.94533 7.02952 9.45673 7.02952 8.94727C7.02952 8.4378 7.23191 7.9492 7.59215 7.58896C7.9524 7.22871 8.441 7.02633 8.95046 7.02633C9.45993 7.02633 9.94853 7.22871 10.3088 7.58896L20.4545 17.7379L30.6035 7.58736C30.9638 7.22711 31.4524 7.02473 31.9618 7.02473C32.4713 7.02473 32.9599 7.22711 33.3201 7.58736C33.6804 7.9476 33.8828 8.4362 33.8828 8.94567C33.8828 9.45513 33.6804 9.94373 33.3201 10.304L23.1712 20.4545L33.3169 30.6035Z" fill="var(--fill-0, white)"/>
</g>
</svg>
