<svg preserveAspectRatio="none" width="100%" height="100%" overflow="visible" style="display: block;" viewBox="0 0 25 25" fill="none" xmlns="http://www.w3.org/2000/svg">
<g id="Frame">
<path id="Vector" d="M12.5 2.34375C10.4913 2.34375 8.52768 2.9394 6.85749 4.05539C5.1873 5.17137 3.88555 6.75756 3.11685 8.61337C2.34815 10.4692 2.14702 12.5113 2.5389 14.4814C2.93078 16.4515 3.89807 18.2612 5.31845 19.6816C6.73882 21.1019 8.54849 22.0692 10.5186 22.4611C12.4887 22.853 14.5308 22.6519 16.3866 21.8832C18.2424 21.1144 19.8286 19.8127 20.9446 18.1425C22.0606 16.4723 22.6562 14.5087 22.6562 12.5C22.6534 9.80727 21.5825 7.22564 19.6784 5.32159C17.7744 3.41754 15.1927 2.34659 12.5 2.34375ZM12.5 21.0938C10.8003 21.0938 9.1388 20.5897 7.72557 19.6454C6.31233 18.7011 5.21085 17.359 4.56041 15.7887C3.90997 14.2184 3.73978 12.4905 4.07138 10.8234C4.40297 9.15642 5.22144 7.62516 6.4233 6.4233C7.62516 5.22144 9.15642 4.40297 10.8234 4.07138C12.4905 3.73978 14.2184 3.90997 15.7887 4.56041C17.359 5.21085 18.7011 6.31233 19.6454 7.72557C20.5897 9.1388 21.0937 10.8003 21.0937 12.5C21.0912 14.7784 20.1849 16.9628 18.5738 18.5738C16.9628 20.1849 14.7784 21.0912 12.5 21.0938ZM7.8125 10.5469C7.8125 10.3151 7.88123 10.0885 8.01 9.89582C8.13876 9.7031 8.32179 9.5529 8.53592 9.4642C8.75005 9.37551 8.98568 9.3523 9.213 9.39752C9.44032 9.44273 9.64913 9.55434 9.81302 9.71823C9.97691 9.88212 10.0885 10.0909 10.1337 10.3183C10.1789 10.5456 10.1557 10.7812 10.067 10.9953C9.97835 11.2095 9.82815 11.3925 9.63543 11.5213C9.44272 11.65 9.21615 11.7188 8.98437 11.7188C8.67357 11.7187 8.3755 11.5953 8.15573 11.3755C7.93596 11.1557 7.8125 10.8577 7.8125 10.5469ZM17.1875 10.5469C17.1875 10.7786 17.1188 11.0052 16.99 11.1979C16.8612 11.3906 16.6782 11.5408 16.4641 11.6295C16.2499 11.7182 16.0143 11.7414 15.787 11.6962C15.5597 11.651 15.3509 11.5394 15.187 11.3755C15.0231 11.2116 14.9115 11.0028 14.8663 10.7755C14.8211 10.5482 14.8443 10.3126 14.933 10.0984C15.0217 9.88429 15.1719 9.70126 15.3646 9.5725C15.5573 9.44373 15.7838 9.375 16.0156 9.375C16.3264 9.375 16.6245 9.49846 16.8443 9.71823C17.064 9.938 17.1875 10.2361 17.1875 10.5469ZM17.083 15.2344C16.0781 16.9717 14.4072 17.9688 12.5 17.9688C10.5928 17.9688 8.92285 16.9727 7.91797 15.2344C7.86144 15.1455 7.82349 15.046 7.80639 14.942C7.78929 14.8381 7.79339 14.7317 7.81846 14.6294C7.84353 14.527 7.88904 14.4308 7.95225 14.3465C8.01547 14.2622 8.09508 14.1916 8.18631 14.1389C8.27753 14.0861 8.37847 14.0524 8.48307 14.0397C8.58767 14.027 8.69376 14.0356 8.79495 14.0649C8.89614 14.0943 8.99035 14.1438 9.07191 14.2105C9.15347 14.2772 9.22069 14.3598 9.26953 14.4531C9.99902 15.7139 11.1455 16.4062 12.5 16.4062C13.8545 16.4062 15.001 15.7129 15.7295 14.4531C15.8331 14.2736 16.0038 14.1427 16.2039 14.089C16.4041 14.0353 16.6174 14.0634 16.7969 14.167C16.9764 14.2706 17.1073 14.4413 17.161 14.6414C17.2147 14.8416 17.1866 15.0549 17.083 15.2344Z" fill="var(--fill-0, #193495)"/>
</g>
</svg>
