<svg preserveAspectRatio="none" width="100%" height="100%" overflow="visible" style="display: block;" viewBox="0 0 25 25" fill="none" xmlns="http://www.w3.org/2000/svg">
<g id="Frame">
<path id="Vector" d="M20.3125 5.46875H17.6055L16.2744 3.47266C16.2031 3.36577 16.1065 3.27813 15.9933 3.21749C15.88 3.15684 15.7535 3.12508 15.625 3.125H9.375C9.24651 3.12508 9.12003 3.15684 9.00675 3.21749C8.89347 3.27813 8.7969 3.36577 8.72559 3.47266L7.39355 5.46875H4.6875C4.0659 5.46875 3.46976 5.71568 3.03022 6.15522C2.59068 6.59476 2.34375 7.1909 2.34375 7.8125V18.75C2.34375 19.3716 2.59068 19.9677 3.03022 20.4073C3.46976 20.8468 4.0659 21.0937 4.6875 21.0938H20.3125C20.9341 21.0937 21.5302 20.8468 21.9698 20.4073C22.4093 19.9677 22.6562 19.3716 22.6562 18.75V7.8125C22.6562 7.1909 22.4093 6.59476 21.9698 6.15522C21.5302 5.71568 20.9341 5.46875 20.3125 5.46875ZM21.0938 18.75C21.0938 18.9572 21.0114 19.1559 20.8649 19.3024C20.7184 19.4489 20.5197 19.5312 20.3125 19.5312H4.6875C4.4803 19.5312 4.28159 19.4489 4.13507 19.3024C3.98856 19.1559 3.90625 18.9572 3.90625 18.75V7.8125C3.90625 7.6053 3.98856 7.40659 4.13507 7.26007C4.28159 7.11356 4.4803 7.03125 4.6875 7.03125H7.8125C7.94115 7.03133 8.06784 6.99964 8.1813 6.93899C8.29476 6.87835 8.39149 6.79061 8.46289 6.68359L9.79297 4.6875H15.2061L16.5371 6.68359C16.6085 6.79061 16.7052 6.87835 16.8187 6.93899C16.9322 6.99964 17.0588 7.03133 17.1875 7.03125H20.3125C20.5197 7.03125 20.7184 7.11356 20.8649 7.26007C21.0114 7.40659 21.0938 7.6053 21.0938 7.8125V18.75ZM12.5 8.59375C11.6502 8.59375 10.8194 8.84576 10.1128 9.3179C9.40617 9.79005 8.85543 10.4611 8.53021 11.2463C8.20499 12.0314 8.11989 12.8954 8.28569 13.7289C8.45148 14.5624 8.86072 15.328 9.46165 15.929C10.0626 16.5299 10.8282 16.9391 11.6617 17.1049C12.4952 17.2707 13.3592 17.1856 14.1443 16.8604C14.9295 16.5352 15.6006 15.9845 16.0727 15.2778C16.5449 14.5712 16.7969 13.7405 16.7969 12.8906C16.7956 11.7514 16.3425 10.6592 15.5369 9.8537C14.7314 9.04816 13.6392 8.59504 12.5 8.59375ZM12.5 15.625C11.9592 15.625 11.4305 15.4646 10.9809 15.1642C10.5312 14.8637 10.1807 14.4367 9.97377 13.937C9.76681 13.4374 9.71266 12.8876 9.81817 12.3572C9.92367 11.8268 10.1841 11.3395 10.5665 10.9571C10.9489 10.5747 11.4361 10.3143 11.9665 10.2088C12.497 10.1033 13.0468 10.1574 13.5464 10.3644C14.046 10.5714 14.4731 10.9218 14.7735 11.3715C15.074 11.8212 15.2344 12.3498 15.2344 12.8906C15.2344 13.6158 14.9463 14.3113 14.4335 14.8241C13.9207 15.3369 13.2252 15.625 12.5 15.625Z" fill="var(--fill-0, #193495)"/>
</g>
</svg>
