<svg preserveAspectRatio="none" width="100%" height="100%" overflow="visible" style="display: block;" viewBox="0 0 15 15" fill="none" xmlns="http://www.w3.org/2000/svg">
<g id="Frame">
<path id="Vector" d="M14.0625 7.49355C14.0629 7.66059 14.0187 7.8247 13.9345 7.96892C13.8502 8.11314 13.7289 8.23223 13.5832 8.31387L3.74414 13.9395C3.60295 14.0195 3.44355 14.0619 3.28125 14.0625C3.13171 14.0617 2.98454 14.0251 2.85201 13.9559C2.71948 13.8866 2.60545 13.7866 2.51943 13.6643C2.43341 13.542 2.3779 13.4009 2.35753 13.2527C2.33716 13.1046 2.35253 12.9537 2.40234 12.8127L3.98438 8.12812C3.99984 8.08232 4.02908 8.04243 4.0681 8.01389C4.10712 7.98536 4.15401 7.96959 4.20234 7.96875H8.4375C8.50176 7.96889 8.56536 7.95582 8.62436 7.93034C8.68335 7.90487 8.73648 7.86754 8.78044 7.82067C8.8244 7.77379 8.85825 7.71838 8.87989 7.65788C8.90154 7.59737 8.91051 7.53306 8.90625 7.46895C8.89562 7.34841 8.83985 7.23634 8.7501 7.15517C8.66036 7.07401 8.54326 7.02975 8.42227 7.03125H4.20352C4.15448 7.03125 4.10668 7.01588 4.06684 6.98729C4.027 6.9587 3.99714 6.91833 3.98145 6.87187L2.39941 2.18789C2.33645 2.00836 2.32959 1.81391 2.37977 1.63039C2.42994 1.44686 2.53476 1.28295 2.68031 1.16042C2.82586 1.03789 3.00524 0.962543 3.19463 0.94439C3.38402 0.926237 3.57445 0.966137 3.74063 1.05879L13.5844 6.67734C13.7293 6.75879 13.8499 6.8773 13.9339 7.02072C14.0179 7.16415 14.0623 7.32733 14.0625 7.49355Z" fill="var(--fill-0, #193495)"/>
</g>
</svg>
