<svg preserveAspectRatio="none" width="100%" height="100%" overflow="visible" style="display: block;" viewBox="0 0 12 13" fill="none" xmlns="http://www.w3.org/2000/svg">
<g id="Frame">
<path id="Vector" d="M8.51531 6.78742L4.76531 10.8499C4.73047 10.8877 4.68911 10.9176 4.64359 10.938C4.59806 10.9585 4.54927 10.969 4.5 10.969C4.45073 10.969 4.40194 10.9585 4.35641 10.938C4.31089 10.9176 4.26953 10.8877 4.23469 10.8499C4.19985 10.8122 4.17221 10.7674 4.15335 10.7181C4.1345 10.6687 4.12479 10.6159 4.12479 10.5625C4.12479 10.5091 4.1345 10.4563 4.15335 10.4069C4.17221 10.3576 4.19985 10.3128 4.23469 10.2751L7.71984 6.5L4.23469 2.72492C4.16432 2.64869 4.12479 2.5453 4.12479 2.4375C4.12479 2.3297 4.16432 2.22631 4.23469 2.15008C4.30505 2.07385 4.40049 2.03102 4.5 2.03102C4.59951 2.03102 4.69495 2.07385 4.76531 2.15008L8.51531 6.21258C8.55018 6.25031 8.57784 6.29511 8.59671 6.34443C8.61558 6.39375 8.62529 6.44661 8.62529 6.5C8.62529 6.55339 8.61558 6.60625 8.59671 6.65557C8.57784 6.70489 8.55018 6.74969 8.51531 6.78742Z" fill="var(--fill-0, #193495)"/>
</g>
</svg>
