<svg width="30" height="30" viewBox="0 0 30 30" fill="none" xmlns="http://www.w3.org/2000/svg">
<path d="M27.4563 13.4589L22.1828 18.0093L23.7895 24.8143C23.8781 25.1838 23.8553 25.5712 23.7239 25.9276C23.5925 26.2841 23.3584 26.5936 23.0511 26.817C22.7439 27.0405 22.3773 27.1679 21.9977 27.1831C21.6181 27.1983 21.2425 27.1007 20.9184 26.9026L15.0004 23.2604L9.07893 26.9026C8.75482 27.0996 8.37968 27.1963 8.00073 27.1805C7.62179 27.1647 7.25599 27.0371 6.9494 26.8139C6.64281 26.5906 6.40914 26.2816 6.2778 25.9258C6.14647 25.57 6.12335 25.1833 6.21135 24.8143L7.82385 18.0093L2.55042 13.4589C2.26366 13.211 2.05626 12.8842 1.95414 12.5192C1.85202 12.1542 1.8597 11.7672 1.97621 11.4065C2.09273 11.0459 2.31291 10.7275 2.60928 10.4912C2.90564 10.255 3.26504 10.1112 3.6426 10.078L10.5567 9.5202L13.2239 3.06551C13.3682 2.71373 13.6139 2.41283 13.9298 2.20106C14.2456 1.98929 14.6172 1.87622 14.9975 1.87622C15.3777 1.87622 15.7494 1.98929 16.0652 2.20106C16.381 2.41283 16.6267 2.71373 16.7711 3.06551L19.4371 9.5202L26.3512 10.078C26.7295 10.11 27.09 10.2529 27.3874 10.4889C27.6848 10.7248 27.906 11.0433 28.0233 11.4044C28.1405 11.7655 28.1486 12.1532 28.0465 12.5188C27.9444 12.8845 27.7366 13.2119 27.4492 13.46L27.4563 13.4589Z" fill="#FFC12F"/>
</svg>
