<svg preserveAspectRatio="none" width="100%" height="100%" overflow="visible" style="display: block;" viewBox="0 0 20 20" fill="none" xmlns="http://www.w3.org/2000/svg">
<g id="Frame">
<path id="Vector" d="M8.75 11.875C8.58424 11.875 8.42527 11.9408 8.30806 12.0581C8.19085 12.1753 8.125 12.3342 8.125 12.5V14.7414L5.18281 11.7969C5.0662 11.6801 5.00049 11.522 5 11.357V7.42187C5.58916 7.26975 6.10262 6.90798 6.44413 6.40437C6.78563 5.90076 6.93175 5.28988 6.85507 4.68625C6.7784 4.08262 6.48421 3.52767 6.02765 3.12542C5.57108 2.72318 4.98348 2.50126 4.375 2.50126C3.76652 2.50126 3.17892 2.72318 2.72235 3.12542C2.26579 3.52767 1.9716 4.08262 1.89493 4.68625C1.81825 5.28988 1.96437 5.90076 2.30587 6.40437C2.64738 6.90798 3.16084 7.26975 3.75 7.42187V11.3578C3.74875 11.6044 3.79645 11.8487 3.89032 12.0767C3.9842 12.3047 4.12238 12.5118 4.29688 12.6859L7.24141 15.625H5C4.83424 15.625 4.67527 15.6908 4.55806 15.8081C4.44085 15.9253 4.375 16.0842 4.375 16.25C4.375 16.4158 4.44085 16.5747 4.55806 16.6919C4.67527 16.8092 4.83424 16.875 5 16.875H8.75C8.91576 16.875 9.07473 16.8092 9.19194 16.6919C9.30915 16.5747 9.375 16.4158 9.375 16.25V12.5C9.375 12.3342 9.30915 12.1753 9.19194 12.0581C9.07473 11.9408 8.91576 11.875 8.75 11.875ZM3.125 5C3.125 4.75277 3.19831 4.5111 3.33566 4.30554C3.47301 4.09998 3.66824 3.93976 3.89665 3.84515C4.12505 3.75054 4.37639 3.72579 4.61886 3.77402C4.86134 3.82225 5.08407 3.9413 5.25888 4.11612C5.4337 4.29093 5.55275 4.51366 5.60098 4.75614C5.64921 4.99861 5.62446 5.24995 5.52985 5.47835C5.43524 5.70676 5.27502 5.90199 5.06946 6.03934C4.8639 6.17669 4.62223 6.25 4.375 6.25C4.04348 6.25 3.72554 6.1183 3.49112 5.88388C3.2567 5.64946 3.125 5.33152 3.125 5ZM16.25 12.5781V8.64297C16.2512 8.39642 16.2036 8.15208 16.1097 7.92409C16.0158 7.69611 15.8776 7.48903 15.7031 7.31484L12.7586 4.375H15C15.1658 4.375 15.3247 4.30915 15.4419 4.19194C15.5592 4.07473 15.625 3.91576 15.625 3.75C15.625 3.58424 15.5592 3.42527 15.4419 3.30806C15.3247 3.19085 15.1658 3.125 15 3.125H11.25C11.0842 3.125 10.9253 3.19085 10.8081 3.30806C10.6908 3.42527 10.625 3.58424 10.625 3.75V7.5C10.625 7.66576 10.6908 7.82473 10.8081 7.94194C10.9253 8.05915 11.0842 8.125 11.25 8.125C11.4158 8.125 11.5747 8.05915 11.6919 7.94194C11.8092 7.82473 11.875 7.66576 11.875 7.5V5.25859L14.8172 8.20313C14.8752 8.26121 14.9212 8.33016 14.9526 8.40603C14.984 8.4819 15.0001 8.56321 15 8.64531V12.5781C14.4108 12.7302 13.8974 13.092 13.5559 13.5956C13.2144 14.0992 13.0683 14.7101 13.1449 15.3138C13.2216 15.9174 13.5158 16.4723 13.9724 16.8746C14.4289 17.2768 15.0165 17.4987 15.625 17.4987C16.2335 17.4987 16.8211 17.2768 17.2776 16.8746C17.7342 16.4723 18.0284 15.9174 18.1051 15.3138C18.1817 14.7101 18.0356 14.0992 17.6941 13.5956C17.3526 13.092 16.8392 12.7302 16.25 12.5781ZM15.625 16.25C15.3778 16.25 15.1361 16.1767 14.9305 16.0393C14.725 15.902 14.5648 15.7068 14.4702 15.4784C14.3755 15.2499 14.3508 14.9986 14.399 14.7561C14.4472 14.5137 14.5663 14.2909 14.7411 14.1161C14.9159 13.9413 15.1387 13.8223 15.3811 13.774C15.6236 13.7258 15.8749 13.7505 16.1034 13.8452C16.3318 13.9398 16.527 14.1 16.6643 14.3055C16.8017 14.5111 16.875 14.7528 16.875 15C16.875 15.3315 16.7433 15.6495 16.5089 15.8839C16.2745 16.1183 15.9565 16.25 15.625 16.25Z" fill="var(--fill-0, #193495)"/>
</g>
</svg>
