<svg preserveAspectRatio="none" width="100%" height="100%" overflow="visible" style="display: block;" viewBox="0 0 21.875 18.7456" fill="none" xmlns="http://www.w3.org/2000/svg">
<path id="Vector" d="M15.8203 0C13.8037 0 12.0381 0.867187 10.9375 2.33301C9.83691 0.867187 8.07129 0 6.05469 0C4.44944 0.00180931 2.91046 0.640293 1.77538 1.77538C0.640293 2.91046 0.00180931 4.44944 0 6.05469C0 12.8906 10.1357 18.4238 10.5674 18.6523C10.6811 18.7135 10.8083 18.7456 10.9375 18.7456C11.0667 18.7456 11.1939 18.7135 11.3076 18.6523C11.7393 18.4238 21.875 12.8906 21.875 6.05469C21.8732 4.44944 21.2347 2.91046 20.0996 1.77538C18.9645 0.640293 17.4256 0.00180931 15.8203 0ZM10.9375 17.0703C9.1543 16.0313 1.5625 11.2979 1.5625 6.05469C1.56405 4.86376 2.03783 3.72206 2.87994 2.87994C3.72206 2.03783 4.86376 1.56405 6.05469 1.5625C7.9541 1.5625 9.54883 2.57422 10.2148 4.19922C10.2737 4.34251 10.3738 4.46507 10.5025 4.55132C10.6312 4.63757 10.7826 4.68362 10.9375 4.68362C11.0924 4.68362 11.2438 4.63757 11.3725 4.55132C11.5012 4.46507 11.6013 4.34251 11.6602 4.19922C12.3262 2.57129 13.9209 1.5625 15.8203 1.5625C17.0112 1.56405 18.1529 2.03783 18.9951 2.87994C19.8372 3.72206 20.3109 4.86376 20.3125 6.05469C20.3125 11.29 12.7187 16.0303 10.9375 17.0703Z" fill="var(--fill-0, black)"/>
</svg>
