<svg preserveAspectRatio="none" width="100%" height="100%" overflow="visible" style="display: block;" viewBox="0 0 15.75 13.4968" fill="none" xmlns="http://www.w3.org/2000/svg">
<g id="Group 496">
<path id="Vector" d="M11.3906 0C9.93867 0 8.66742 0.624375 7.875 1.67977C7.08258 0.624375 5.81133 0 4.35938 0C3.2036 0.00130271 2.09553 0.461011 1.27827 1.27827C0.461011 2.09553 0.00130271 3.2036 0 4.35937C0 9.28125 7.29773 13.2652 7.60852 13.4297C7.69043 13.4738 7.78199 13.4968 7.875 13.4968C7.96801 13.4968 8.05957 13.4738 8.14148 13.4297C8.45227 13.2652 15.75 9.28125 15.75 4.35937C15.7487 3.2036 15.289 2.09553 14.4717 1.27827C13.6545 0.461011 12.5464 0.00130271 11.3906 0ZM7.875 12.2906C6.59109 11.5425 1.125 8.13445 1.125 4.35937C1.12612 3.50191 1.46724 2.67988 2.07356 2.07356C2.67988 1.46724 3.50191 1.12612 4.35938 1.125C5.72695 1.125 6.87516 1.85344 7.35469 3.02344C7.39707 3.12661 7.46916 3.21485 7.5618 3.27695C7.65445 3.33905 7.76347 3.37221 7.875 3.37221C7.98653 3.37221 8.09555 3.33905 8.1882 3.27695C8.28084 3.21485 8.35293 3.12661 8.39531 3.02344C8.87484 1.85133 10.023 1.125 11.3906 1.125C12.2481 1.12612 13.0701 1.46724 13.6764 2.07356C14.2828 2.67988 14.6239 3.50191 14.625 4.35937C14.625 8.12883 9.1575 11.5418 7.875 12.2906Z" fill="var(--fill-0, black)"/>
</g>
</svg>
