<svg preserveAspectRatio="none" width="100%" height="100%" overflow="visible" style="display: block;" viewBox="0 0 25 7.36396" fill="none" xmlns="http://www.w3.org/2000/svg">
<path id="Arrow 2" d="M0.5 3.18198C0.223858 3.18198 0 3.40584 0 3.68198C0 3.95812 0.223858 4.18198 0.5 4.18198V3.68198V3.18198ZM24.8536 4.03553C25.0488 3.84027 25.0488 3.52369 24.8536 3.32843L21.6716 0.146447C21.4763 -0.0488155 21.1597 -0.0488155 20.9645 0.146447C20.7692 0.341709 20.7692 0.658291 20.9645 0.853554L23.7929 3.68198L20.9645 6.51041C20.7692 6.70567 20.7692 7.02225 20.9645 7.21751C21.1597 7.41278 21.4763 7.41278 21.6716 7.21751L24.8536 4.03553ZM0.5 3.68198V4.18198H24.5V3.68198V3.18198H0.5V3.68198Z" fill="var(--stroke-0, #71767B)"/>
</svg>
