<svg preserveAspectRatio="none" width="100%" height="100%" overflow="visible" style="display: block;" viewBox="0 0 1005 648" fill="none" xmlns="http://www.w3.org/2000/svg">
<g id="Group 1">
<path id="Vector 2" d="M759.458 130.863C759.456 104.691 755.71 68.7028 808.18 39.2593C860.651 9.8159 909.373 22.9017 946.852 42.5309C984.331 62.1601 995.575 91.6043 1003.07 140.678C1010.57 189.751 995.575 245.368 969.339 287.898C943.104 330.428 886.886 366.416 853.155 372.959C819.424 379.502 815.676 366.416 815.676 363.144C815.676 359.872 815.673 350.058 830.668 336.971C845.662 323.885 864.404 314.07 875.644 284.626C886.884 255.182 883.143 229.009 875.644 219.195C868.144 209.38 823.173 215.923 800.686 202.837C778.199 189.751 759.46 157.035 759.458 130.863Z" fill="var(--fill-0, #193495)" fill-opacity="0.09"/>
<path id="Vector 1" d="M2.39354 140.677C-8.85039 94.8752 21.1328 58.8869 58.6119 35.9866C96.091 13.0863 167.301 0 216.023 3.62769e-10C264.746 7.4833e-10 339.704 9.81469 358.443 16.3578C377.183 22.9009 377.183 29.4441 358.443 29.4441C339.704 29.4441 264.746 26.1725 246.006 29.4441C227.267 32.7156 212.195 41.1421 212.275 58.8875C212.356 76.6329 371.681 482.739 403.418 474.376C435.155 466.012 444.645 340.241 444.645 291.169C444.645 242.096 418.41 199.566 403.418 157.034C388.426 114.503 407.166 62.1579 444.645 35.9866C482.124 9.81528 549.586 16.3579 594.561 52.3444C639.535 88.3309 804.443 494.004 811.938 510.363C819.434 526.722 831.496 591.283 774.459 624.868C717.423 658.452 647.031 651.041 617.048 618.325C587.065 585.608 549.288 495.585 515.855 415.488C486.466 497.856 463.384 559.437 414.662 605.238C365.939 651.04 309.721 651.975 279.738 644.497C249.754 637.019 212.275 611.782 193.536 572.523C174.797 533.264 13.6375 186.478 2.39354 140.677Z" fill="var(--fill-0, #193495)" fill-opacity="0.09"/>
</g>
</svg>
