<svg preserveAspectRatio="none" width="100%" height="100%" overflow="visible" style="display: block;" viewBox="0 0 40 40" fill="none" xmlns="http://www.w3.org/2000/svg">
<g id="Frame">
<path id="Vector" d="M27.1875 7.46094C25.2575 5.23193 23.0852 3.22477 20.7109 1.47656C20.5008 1.32933 20.2504 1.25035 19.9937 1.25035C19.7371 1.25035 19.4867 1.32933 19.2766 1.47656C16.9066 3.2255 14.7386 5.23263 12.8125 7.46094C8.51719 12.3938 6.25 17.5938 6.25 22.5C6.25 26.1467 7.69866 29.6441 10.2773 32.2227C12.8559 34.8013 16.3533 36.25 20 36.25C23.6467 36.25 27.1441 34.8013 29.7227 32.2227C32.3013 29.6441 33.75 26.1467 33.75 22.5C33.75 17.5938 31.4828 12.3938 27.1875 7.46094ZM20 33.75C17.0173 33.7467 14.1578 32.5604 12.0487 30.4513C9.93964 28.3422 8.75331 25.4827 8.75 22.5C8.75 13.5578 17.4172 6.09375 20 4.0625C22.5828 6.09375 31.25 13.5547 31.25 22.5C31.2467 25.4827 30.0604 28.3422 27.9513 30.4513C25.8422 32.5604 22.9827 33.7467 20 33.75ZM28.7328 23.9594C28.4087 25.7699 27.5376 27.4376 26.2369 28.738C24.9363 30.0384 23.2684 30.9091 21.4578 31.2328C21.3891 31.2438 21.3196 31.2496 21.25 31.25C20.9364 31.2499 20.6344 31.132 20.4037 30.9196C20.173 30.7073 20.0306 30.416 20.0046 30.1035C19.9787 29.791 20.0711 29.4802 20.2636 29.2327C20.456 28.9851 20.7345 28.819 21.0437 28.7672C23.6328 28.3313 25.8297 26.1344 26.2687 23.5406C26.3243 23.2137 26.5074 22.9222 26.7779 22.7302C27.0483 22.5383 27.384 22.4617 27.7109 22.5172C28.0379 22.5727 28.3294 22.7559 28.5213 23.0263C28.7133 23.2968 28.7899 23.6324 28.7344 23.9594H28.7328Z" fill="var(--fill-0, white)"/>
</g>
</svg>
