<svg preserveAspectRatio="none" width="100%" height="100%" overflow="visible" style="display: block;" viewBox="0 0 15 15" fill="none" xmlns="http://www.w3.org/2000/svg">
<g id="Frame">
<path id="Vector" d="M10.6441 7.83164L5.95664 12.5191C5.91309 12.5627 5.86139 12.5972 5.80448 12.6208C5.74758 12.6444 5.68659 12.6565 5.625 12.6565C5.56341 12.6565 5.50242 12.6444 5.44552 12.6208C5.38861 12.5972 5.33691 12.5627 5.29336 12.5191C5.24981 12.4756 5.21526 12.4239 5.19169 12.367C5.16812 12.3101 5.15599 12.2491 5.15599 12.1875C5.15599 12.1259 5.16812 12.0649 5.19169 12.008C5.21526 11.9511 5.24981 11.8994 5.29336 11.8559L9.6498 7.5L5.29336 3.14414C5.2054 3.05618 5.15599 2.93689 5.15599 2.8125C5.15599 2.68811 5.2054 2.56882 5.29336 2.48086C5.38132 2.3929 5.50061 2.34349 5.625 2.34349C5.74939 2.34349 5.86868 2.3929 5.95664 2.48086L10.6441 7.16836C10.6877 7.21189 10.7223 7.26359 10.7459 7.3205C10.7695 7.3774 10.7816 7.4384 10.7816 7.5C10.7816 7.5616 10.7695 7.6226 10.7459 7.6795C10.7223 7.73641 10.6877 7.78811 10.6441 7.83164Z" fill="var(--fill-0, #193495)"/>
</g>
</svg>
