<svg preserveAspectRatio="none" width="100%" height="100%" overflow="visible" style="display: block;" viewBox="0 0 40 40" fill="none" xmlns="http://www.w3.org/2000/svg">
<g id="Frame">
<path id="Vector" d="M31.25 8.75H5C4.00544 8.75 3.05161 9.14509 2.34835 9.84835C1.64509 10.5516 1.25 11.5054 1.25 12.5V27.5C1.25 28.4946 1.64509 29.4484 2.34835 30.1517C3.05161 30.8549 4.00544 31.25 5 31.25H31.25C32.2446 31.25 33.1984 30.8549 33.9017 30.1517C34.6049 29.4484 35 28.4946 35 27.5V12.5C35 11.5054 34.6049 10.5516 33.9017 9.84835C33.1984 9.14509 32.2446 8.75 31.25 8.75ZM32.5 27.5C32.5 27.8315 32.3683 28.1495 32.1339 28.3839C31.8995 28.6183 31.5815 28.75 31.25 28.75H5C4.66848 28.75 4.35054 28.6183 4.11612 28.3839C3.8817 28.1495 3.75 27.8315 3.75 27.5V12.5C3.75 12.1685 3.8817 11.8505 4.11612 11.6161C4.35054 11.3817 4.66848 11.25 5 11.25H31.25C31.5815 11.25 31.8995 11.3817 32.1339 11.6161C32.3683 11.8505 32.5 12.1685 32.5 12.5V27.5ZM40 15V25C40 25.3315 39.8683 25.6495 39.6339 25.8839C39.3995 26.1183 39.0815 26.25 38.75 26.25C38.4185 26.25 38.1005 26.1183 37.8661 25.8839C37.6317 25.6495 37.5 25.3315 37.5 25V15C37.5 14.6685 37.6317 14.3505 37.8661 14.1161C38.1005 13.8817 38.4185 13.75 38.75 13.75C39.0815 13.75 39.3995 13.8817 39.6339 14.1161C39.8683 14.3505 40 14.6685 40 15ZM21.6891 19.3422C21.8013 19.5236 21.8652 19.7306 21.8747 19.9437C21.8843 20.1567 21.8392 20.3687 21.7438 20.5594L19.2438 25.5594C19.1703 25.7063 19.0686 25.8373 18.9445 25.9449C18.8204 26.0525 18.6764 26.1347 18.5205 26.1866C18.3647 26.2386 18.2002 26.2593 18.0363 26.2477C17.8725 26.236 17.7125 26.1922 17.5656 26.1188C17.4187 26.0453 17.2877 25.9436 17.1801 25.8195C17.0725 25.6954 16.9903 25.5514 16.9384 25.3955C16.8864 25.2397 16.8657 25.0752 16.8773 24.9113C16.889 24.7475 16.9328 24.5875 17.0062 24.4406L18.6031 21.25H15.625C15.4118 21.2502 15.2021 21.1958 15.0159 21.0921C14.8297 20.9883 14.673 20.8387 14.5609 20.6574C14.4488 20.4761 14.3849 20.2691 14.3754 20.0561C14.3658 19.8431 14.4109 19.6313 14.5062 19.4406L17.0062 14.4406C17.0797 14.2937 17.1814 14.1627 17.3055 14.0551C17.4296 13.9475 17.5736 13.8653 17.7295 13.8134C17.8853 13.7614 18.0498 13.7407 18.2137 13.7523C18.3775 13.764 18.5375 13.8078 18.6844 13.8812C18.8313 13.9547 18.9623 14.0564 19.0699 14.1805C19.1775 14.3046 19.2597 14.4486 19.3116 14.6045C19.3636 14.7603 19.3843 14.9248 19.3727 15.0887C19.361 15.2525 19.3172 15.4125 19.2438 15.5594L17.6469 18.75H20.625C20.8381 18.7498 21.0478 18.8041 21.234 18.9078C21.4203 19.0114 21.5769 19.161 21.6891 19.3422Z" fill="var(--fill-0, white)"/>
</g>
</svg>
