<svg preserveAspectRatio="none" width="100%" height="100%" overflow="visible" style="display: block;" viewBox="0 0 25 25" fill="none" xmlns="http://www.w3.org/2000/svg">
<g id="Frame">
<path id="Vector" d="M22.8799 11.2158L18.4854 15.0078L19.8242 20.6787C19.8981 20.9866 19.8791 21.3094 19.7696 21.6064C19.66 21.9035 19.4649 22.1614 19.2089 22.3476C18.9529 22.5338 18.6474 22.64 18.3311 22.6527C18.0148 22.6654 17.7018 22.584 17.4316 22.4189L12.5 19.3838L7.56543 22.4189C7.29534 22.5831 6.98272 22.6637 6.66693 22.6505C6.35115 22.6373 6.04631 22.531 5.79082 22.345C5.53533 22.1589 5.3406 21.9014 5.23116 21.6049C5.12171 21.3084 5.10245 20.9861 5.17578 20.6787L6.51953 15.0078L2.125 11.2158C1.88603 11.0093 1.71321 10.7369 1.62811 10.4328C1.54301 10.1286 1.5494 9.80609 1.6465 9.50554C1.74359 9.20498 1.92708 8.93969 2.17405 8.7428C2.42102 8.5459 2.72052 8.42613 3.03516 8.39844L8.79688 7.93359L11.0195 2.55469C11.1398 2.26154 11.3446 2.01079 11.6078 1.83431C11.871 1.65784 12.1807 1.56361 12.4976 1.56361C12.8144 1.56361 13.1241 1.65784 13.3873 1.83431C13.6505 2.01079 13.8553 2.26154 13.9756 2.55469L16.1973 7.93359L21.959 8.39844C22.2742 8.4251 22.5746 8.5442 22.8225 8.74083C23.0704 8.93745 23.2547 9.20285 23.3524 9.50376C23.4501 9.80468 23.4568 10.1277 23.3717 10.4325C23.2866 10.7372 23.1135 11.01 22.874 11.2168L22.8799 11.2158Z" fill="var(--fill-0, #FFC12F)"/>
</g>
</svg>
