<svg preserveAspectRatio="none" width="100%" height="100%" overflow="visible" style="display: block;" viewBox="0 0 25 25" fill="none" xmlns="http://www.w3.org/2000/svg">
<g id="Frame">
<path id="Vector" d="M22.4277 21.3223L17.5381 16.4336C18.9553 14.7321 19.662 12.5498 19.5112 10.3406C19.3603 8.13133 18.3636 6.06529 16.7283 4.57224C15.0929 3.07919 12.945 2.27408 10.7312 2.32439C8.51735 2.3747 6.40817 3.27656 4.84236 4.84236C3.27656 6.40817 2.3747 8.51735 2.32439 10.7312C2.27408 12.945 3.07919 15.0929 4.57224 16.7283C6.06529 18.3636 8.13133 19.3603 10.3406 19.5112C12.5498 19.662 14.7321 18.9553 16.4336 17.5381L21.3223 22.4277C21.3949 22.5003 21.481 22.5579 21.5759 22.5972C21.6707 22.6365 21.7723 22.6567 21.875 22.6567C21.9777 22.6567 22.0793 22.6365 22.1741 22.5972C22.269 22.5579 22.3551 22.5003 22.4277 22.4277C22.5003 22.3551 22.5579 22.269 22.5972 22.1741C22.6365 22.0793 22.6567 21.9777 22.6567 21.875C22.6567 21.7723 22.6365 21.6707 22.5972 21.5759C22.5579 21.481 22.5003 21.3949 22.4277 21.3223ZM3.90625 10.9375C3.90625 9.54685 4.31863 8.18743 5.09123 7.03115C5.86383 5.87486 6.96196 4.97365 8.24676 4.44147C9.53155 3.90929 10.9453 3.77005 12.3092 4.04135C13.6732 4.31266 14.926 4.98232 15.9093 5.96566C16.8927 6.94899 17.5623 8.20184 17.8336 9.56577C18.105 10.9297 17.9657 12.3435 17.4335 13.6282C16.9014 14.913 16.0001 16.0112 14.8439 16.7838C13.6876 17.5564 12.3281 17.9688 10.9375 17.9688C9.07333 17.9667 7.28611 17.2252 5.96794 15.9071C4.64977 14.5889 3.90832 12.8017 3.90625 10.9375Z" fill="var(--fill-0, #193495)"/>
</g>
</svg>
