<svg preserveAspectRatio="none" width="100%" height="100%" overflow="visible" style="display: block;" viewBox="0 0 49.0909 49.0909" fill="none" xmlns="http://www.w3.org/2000/svg">
<g id="Frame">
<path id="Vector" d="M44.5021 35.8134C45.5621 33.6148 46.0822 31.195 46.0192 28.755C45.9562 26.3151 45.312 23.9254 44.1399 21.7844C42.9679 19.6434 41.302 17.813 39.2804 16.4452C37.2589 15.0774 34.9403 14.2117 32.517 13.92C31.7107 12.0452 30.5384 10.3502 29.0688 8.9342C27.5993 7.51818 25.8619 6.4096 23.9586 5.67338C22.0552 4.93716 20.0241 4.58809 17.9842 4.64663C15.9443 4.70517 13.9365 5.17014 12.0785 6.0143C10.2205 6.85846 8.54965 8.06484 7.16371 9.56281C5.77777 11.0608 4.70464 12.8202 4.00715 14.7381C3.30967 16.656 3.00186 18.6938 3.10174 20.7321C3.20162 22.7704 3.7072 24.7683 4.58885 26.6088L3.19474 31.3472C3.03887 31.8762 3.02845 32.4374 3.16457 32.9718C3.3007 33.5062 3.57834 33.994 3.96828 34.384C4.35822 34.7739 4.84606 35.0516 5.38046 35.1877C5.91486 35.3238 6.47607 35.3134 7.00504 35.1575L11.7435 33.7634C13.265 34.4944 14.8962 34.9706 16.572 35.1729C17.3862 37.0805 18.5788 38.8033 20.0776 40.2369C21.5765 41.6706 23.3505 42.7855 25.2924 43.5141C27.2344 44.2427 29.3039 44.57 31.3759 44.4761C33.4479 44.3823 35.4793 43.8692 37.3474 42.968L42.0859 44.3621C42.6146 44.5178 43.1756 44.5281 43.7098 44.3921C44.2439 44.256 44.7316 43.9786 45.1215 43.5889C45.5113 43.1992 45.789 42.7117 45.9254 42.1776C46.0617 41.6435 46.0516 41.0825 45.8962 40.5537L44.5021 35.8134ZM41.3859 36.0952L42.9545 41.4205L37.6313 39.8538C37.2467 39.7423 36.8337 39.7857 36.4807 39.9746C33.6557 41.483 30.3533 41.8284 27.2773 40.9372C24.2013 40.046 21.5951 37.9886 20.0141 35.2036C22.1146 34.9843 24.1472 34.3334 25.9842 33.2915C27.8213 32.2497 29.4232 30.8395 30.6896 29.1493C31.9559 27.4591 32.8593 25.5255 33.343 23.4697C33.8268 21.414 33.8804 19.2804 33.5007 17.2029C35.3309 17.6343 37.0374 18.4805 38.4887 19.6761C39.9399 20.8717 41.097 22.3847 41.8707 24.0985C42.6444 25.8123 43.0139 27.6809 42.9508 29.5601C42.8877 31.4394 42.3936 33.279 41.5067 34.937C41.3158 35.2922 41.2724 35.7083 41.3859 36.0952Z" fill="var(--fill-0, white)"/>
</g>
</svg>
