<svg preserveAspectRatio="none" width="100%" height="100%" overflow="visible" style="display: block;" viewBox="0 0 52 36" fill="none" xmlns="http://www.w3.org/2000/svg">
<g id="Group 385">
<path id="Vector 2" d="M39.2954 7.27012C39.2953 5.81612 39.1015 3.81677 41.8163 2.18103C44.5312 0.54528 47.0522 1.27227 48.9914 2.36278C50.9306 3.45329 51.5123 5.08908 51.9002 7.81538C52.288 10.5417 51.5123 13.6315 50.1549 15.9943C48.7974 18.3571 45.8887 20.3564 44.1434 20.7199C42.3981 21.0834 42.2042 20.3564 42.2042 20.1746C42.2042 19.9929 42.204 19.4476 42.9799 18.7206C43.7557 17.9935 44.7254 17.4483 45.307 15.8125C45.8885 14.1767 45.695 12.7227 45.307 12.1774C44.9189 11.6322 42.5921 11.9957 41.4286 11.2687C40.2651 10.5417 39.2955 8.72412 39.2954 7.27012Z" fill="var(--fill-0, white)"/>
<path id="Vector 1" d="M0.123844 7.81537C-0.457928 5.27085 1.09343 3.2715 3.03264 1.99925C4.97185 0.727014 8.65631 0 11.1773 0C13.6982 0 17.5766 0.54526 18.5462 0.908767C19.5158 1.27227 19.5158 1.63578 18.5462 1.63578C17.5766 1.63578 13.6982 1.45403 12.7286 1.63578C11.759 1.81753 10.9792 2.28567 10.9833 3.27153C10.9875 4.25738 19.2311 26.8189 20.8733 26.3542C22.5154 25.8896 23.0064 18.9023 23.0064 16.176C23.0064 13.4498 21.6489 11.087 20.8733 8.72413C20.0976 6.36128 21.0672 3.45322 23.0064 1.99925C24.9456 0.545293 28.4361 0.908772 30.7632 2.90802C33.0902 4.90727 41.6227 27.4447 42.0105 28.3535C42.3984 29.2623 43.0225 32.8491 40.0713 34.7149C37.1202 36.5807 33.478 36.169 31.9267 34.3514C30.3753 32.5338 28.4207 27.5325 26.6909 23.0827C25.1702 27.6587 23.976 31.0798 21.455 33.6244C18.9341 36.1689 16.0253 36.2208 14.4739 35.8054C12.9225 35.39 10.9833 33.9879 10.0138 31.8068C9.04415 29.6258 0.705616 10.3599 0.123844 7.81537Z" fill="var(--fill-0, white)"/>
</g>
</svg>
