<svg preserveAspectRatio="none" width="100%" height="100%" overflow="visible" style="display: block;" viewBox="0 0 61 41" fill="none" xmlns="http://www.w3.org/2000/svg">
<g id="Group 1">
<path id="Vector 2" d="M46.0965 8.27991C46.0964 6.62397 45.869 4.34693 49.0538 2.484C52.2386 0.621063 55.1958 1.44903 57.4707 2.69099C59.7455 3.93296 60.4279 5.79595 60.8829 8.9009C61.3379 12.0059 60.4279 15.5248 58.8356 18.2158C57.2432 20.9067 53.8309 23.1837 51.7836 23.5977C49.7362 24.0117 49.5088 23.1837 49.5088 22.9767C49.5088 22.7697 49.5086 22.1487 50.4187 21.3207C51.3288 20.4927 52.4663 19.8717 53.1486 18.0087C53.8308 16.1458 53.6038 14.4898 53.1486 13.8688C52.6934 13.2478 49.9638 13.6618 48.5989 12.8338C47.234 12.0058 46.0966 9.93586 46.0965 8.27991Z" fill="var(--fill-0, #193495)"/>
<path id="Vector 1" d="M0.145279 8.90083C-0.537185 6.00291 1.28268 3.72587 3.55752 2.27693C5.83236 0.827988 10.1545 0 13.1118 0C16.0691 0 20.6187 0.620991 21.7561 1.03499C22.8936 1.44898 22.8936 1.86297 21.7561 1.86297C20.6187 1.86297 16.0691 1.65598 14.9317 1.86297C13.7943 2.06997 12.8794 2.60313 12.8843 3.72591C12.8892 4.84869 22.5596 30.5437 24.4859 30.0145C26.4123 29.4854 26.9882 21.5276 26.9882 18.4227C26.9882 15.3178 25.3959 12.6268 24.4859 9.93582C23.576 7.24479 24.7134 3.93283 26.9882 2.27693C29.2631 0.621029 33.3578 1.03499 36.0876 3.31191C38.8174 5.58884 48.8266 31.2564 49.2816 32.2915C49.7365 33.3265 50.4687 37.4114 47.0067 39.5364C43.5448 41.6613 39.2723 41.1924 37.4525 39.1224C35.6326 37.0524 33.3397 31.3565 31.3104 26.2886C29.5266 31.5002 28.1257 35.3964 25.1684 38.2944C22.2111 41.1924 18.7989 41.2515 16.979 40.7784C15.1591 40.3052 12.8843 38.7084 11.7469 36.2244C10.6095 33.7405 0.827742 11.7988 0.145279 8.90083Z" fill="var(--fill-0, #193495)"/>
</g>
</svg>
