<svg preserveAspectRatio="none" width="100%" height="100%" overflow="visible" style="display: block;" viewBox="0 0 40 40" fill="none" xmlns="http://www.w3.org/2000/svg">
<g id="Frame">
<path id="Vector" d="M21.1188 13.1906C21.0151 12.9826 20.8555 12.8076 20.6578 12.6853C20.4602 12.563 20.2324 12.4982 20 12.4982C19.7676 12.4982 19.5398 12.563 19.3422 12.6853C19.1445 12.8076 18.9849 12.9826 18.8812 13.1906L7.63125 35.6906C7.48289 35.9871 7.4584 36.3304 7.56316 36.645C7.66791 36.9595 7.89334 37.2196 8.18984 37.368C8.48635 37.5163 8.82964 37.5408 9.1442 37.4361C9.45877 37.3313 9.71883 37.1059 9.86719 36.8094L12.0313 32.5H27.9844L30.1391 36.8094C30.2424 37.0159 30.4009 37.1897 30.597 37.3116C30.7931 37.4335 31.0191 37.4987 31.25 37.5C31.463 37.4999 31.6725 37.4453 31.8586 37.3415C32.0446 37.2376 32.201 37.088 32.3129 36.9067C32.4249 36.7254 32.4886 36.5186 32.4981 36.3057C32.5076 36.0929 32.4625 35.8812 32.3672 35.6906L21.1188 13.1906ZM20 16.5453L24.2281 25H15.7719L20 16.5453ZM13.2812 30L14.5312 27.5H25.4844L26.7344 30H13.2812ZM24.9281 14.6469C25.0569 13.9271 25.0262 13.1879 24.8383 12.4813C24.6503 11.7747 24.3097 11.1179 23.8404 10.5573C23.3712 9.99657 22.7846 9.54563 22.1221 9.23622C21.4597 8.92681 20.7374 8.76645 20.0062 8.76645C19.2751 8.76645 18.5528 8.92681 17.8904 9.23622C17.2279 9.54563 16.6413 9.99657 16.1721 10.5573C15.7028 11.1179 15.3622 11.7747 15.1742 12.4813C14.9863 13.1879 14.9556 13.9271 15.0844 14.6469C15.1177 14.81 15.1181 14.9782 15.0856 15.1415C15.0531 15.3048 14.9882 15.46 14.8949 15.5979C14.8015 15.7358 14.6816 15.8537 14.5421 15.9446C14.4026 16.0355 14.2463 16.0976 14.0824 16.1272C13.9186 16.1569 13.7504 16.1535 13.5879 16.1173C13.4253 16.0811 13.2717 16.0128 13.1359 15.9164C13.0002 15.82 12.885 15.6974 12.7973 15.5558C12.7095 15.4143 12.651 15.2567 12.625 15.0922C12.4291 14.0116 12.4729 12.9011 12.7533 11.8393C13.0337 10.7775 13.5438 9.79016 14.2477 8.94717C14.9516 8.10417 15.8321 7.42605 16.8269 6.96072C17.8216 6.49539 18.9065 6.2542 20.0047 6.2542C21.1029 6.2542 22.1877 6.49539 23.1825 6.96072C24.1773 7.42605 25.0577 8.10417 25.7616 8.94717C26.4655 9.79016 26.9757 10.7775 27.2561 11.8393C27.5365 12.9011 27.5803 14.0116 27.3844 15.0922C27.3324 15.3802 27.181 15.6409 26.9566 15.8288C26.7322 16.0167 26.4489 16.1198 26.1562 16.1203C26.0813 16.1197 26.0066 16.1129 25.9328 16.1C25.7708 16.0714 25.616 16.011 25.4773 15.9224C25.3387 15.8338 25.2189 15.7187 25.1248 15.5837C25.0307 15.4487 24.9643 15.2964 24.9292 15.1357C24.8941 14.9749 24.8911 14.8088 24.9203 14.6469H24.9281ZM10.0234 21.2828C8.62282 19.4274 7.76735 17.2182 7.55317 14.9033C7.33898 12.5885 7.77456 10.2598 8.81096 8.17893C9.84736 6.09803 11.4435 4.34737 13.4201 3.12366C15.3966 1.89994 17.6753 1.25166 20 1.25166C22.3247 1.25166 24.6034 1.89994 26.5799 3.12366C28.5565 4.34737 30.1526 6.09803 31.189 8.17893C32.2254 10.2598 32.661 12.5885 32.4468 14.9033C32.2326 17.2182 31.3772 19.4274 29.9766 21.2828C29.7746 21.5415 29.479 21.7104 29.1536 21.7531C28.8281 21.7957 28.499 21.7086 28.2372 21.5106C27.9754 21.3127 27.802 21.0197 27.7544 20.6949C27.7068 20.3702 27.7889 20.0398 27.9828 19.775C29.1028 18.2906 29.7867 16.5232 29.9576 14.6716C30.1286 12.8199 29.7799 10.9572 28.9507 9.29281C28.1214 7.62839 26.8445 6.22816 25.2634 5.2494C23.6823 4.27065 21.8595 3.75215 20 3.75215C18.1405 3.75215 16.3177 4.27065 14.7366 5.2494C13.1555 6.22816 11.8786 7.62839 11.0493 9.29281C10.2201 10.9572 9.87139 12.8199 10.0424 14.6716C10.2133 16.5232 10.8972 18.2906 12.0172 19.775C12.2111 20.0398 12.2932 20.3702 12.2456 20.6949C12.198 21.0197 12.0246 21.3127 11.7628 21.5106C11.501 21.7086 11.1719 21.7957 10.8464 21.7531C10.521 21.7104 10.2254 21.5415 10.0234 21.2828Z" fill="var(--fill-0, white)"/>
</g>
</svg>
