<svg preserveAspectRatio="none" width="100%" height="100%" overflow="visible" style="display: block;" viewBox="0 0 40 40" fill="none" xmlns="http://www.w3.org/2000/svg">
<g id="Frame">
<path id="Vector" d="M11.25 22.5H5C4.66848 22.5 4.35054 22.3683 4.11612 22.1339C3.8817 21.8995 3.75 21.5815 3.75 21.25C3.75 20.9185 3.8817 20.6005 4.11612 20.3661C4.35054 20.1317 4.66848 20 5 20H10.5813L12.7094 16.8062C12.8235 16.6348 12.9782 16.4942 13.1597 16.3969C13.3413 16.2997 13.544 16.2488 13.75 16.2488C13.956 16.2488 14.1587 16.2997 14.3403 16.3969C14.5218 16.4942 14.6765 16.6348 14.7906 16.8062L18.75 22.7437L20.2094 20.5562C20.3236 20.385 20.4784 20.2446 20.6599 20.1476C20.8415 20.0506 21.0442 19.9999 21.25 20H25C25.3315 20 25.6495 20.1317 25.8839 20.3661C26.1183 20.6005 26.25 20.9185 26.25 21.25C26.25 21.5815 26.1183 21.8995 25.8839 22.1339C25.6495 22.3683 25.3315 22.5 25 22.5H21.9187L19.7906 25.6938C19.6765 25.8652 19.5218 26.0058 19.3403 26.1031C19.1587 26.2003 18.956 26.2512 18.75 26.2512C18.544 26.2512 18.3413 26.2003 18.1597 26.1031C17.9782 26.0058 17.8235 25.8652 17.7094 25.6938L13.75 19.7531L12.2906 21.9406C12.1767 22.1124 12.0221 22.2534 11.8406 22.351C11.659 22.4486 11.4561 22.4998 11.25 22.5ZM27.8125 6.25C24.5859 6.25 21.7609 7.6375 20 9.98281C18.2391 7.6375 15.4141 6.25 12.1875 6.25C9.6191 6.25289 7.15673 7.27447 5.3406 9.0906C3.52447 10.9067 2.50289 13.3691 2.5 15.9375C2.5 16.0547 2.5 16.1719 2.5 16.2891C2.51036 16.6206 2.65199 16.9344 2.89374 17.1615C3.13548 17.3886 3.45754 17.5104 3.78906 17.5C4.12058 17.4896 4.43441 17.348 4.6615 17.1063C4.8886 16.8645 5.01036 16.5425 5 16.2109C5 16.1203 5 16.0281 5 15.9375C5.00248 14.032 5.76053 12.2053 7.10791 10.8579C8.45529 9.51053 10.282 8.75248 12.1875 8.75C15.2266 8.75 17.7781 10.3688 18.8437 12.9688C18.9379 13.198 19.0981 13.3941 19.304 13.5321C19.5099 13.6701 19.7521 13.7438 20 13.7438C20.2479 13.7438 20.4901 13.6701 20.696 13.5321C20.9019 13.3941 21.0621 13.198 21.1562 12.9688C22.2219 10.3641 24.7734 8.75 27.8125 8.75C29.718 8.75248 31.5447 9.51053 32.8921 10.8579C34.2395 12.2053 34.9975 14.032 35 15.9375C35 24.3141 22.85 31.8984 20 33.5625C18.3078 32.5766 13.3391 29.5 9.58125 25.4047C9.47024 25.2836 9.33648 25.1856 9.18759 25.1162C9.0387 25.0469 8.87761 25.0075 8.71351 25.0004C8.54941 24.9933 8.38552 25.0186 8.23119 25.0748C8.07687 25.131 7.93512 25.2171 7.81406 25.3281C7.693 25.4391 7.59499 25.5729 7.52562 25.7218C7.45626 25.8707 7.41689 26.0318 7.40978 26.1959C7.40268 26.36 7.42796 26.5239 7.48419 26.6782C7.54042 26.8325 7.62649 26.9743 7.7375 27.0953C12.6078 32.4078 19.1328 35.9516 19.4078 36.1C19.5898 36.1979 19.7933 36.2492 20 36.2492C20.2067 36.2492 20.4102 36.1979 20.5922 36.1C21.2828 35.7281 37.5 26.875 37.5 15.9375C37.4971 13.3691 36.4755 10.9067 34.6594 9.0906C32.8433 7.27447 30.3809 6.25289 27.8125 6.25Z" fill="var(--fill-0, white)"/>
</g>
</svg>
