<svg preserveAspectRatio="none" width="100%" height="100%" overflow="visible" style="display: block;" viewBox="0 0 14.625 14.625" fill="none" xmlns="http://www.w3.org/2000/svg">
<g id="Group 494">
<path id="Vector" d="M8.15625 10.9688C8.15625 11.1356 8.10677 11.2988 8.01406 11.4375C7.92134 11.5763 7.78957 11.6844 7.63539 11.7483C7.48122 11.8121 7.31157 11.8288 7.1479 11.7963C6.98422 11.7637 6.83388 11.6834 6.71588 11.5654C6.59788 11.4474 6.51752 11.297 6.48497 11.1334C6.45241 10.9697 6.46912 10.8 6.53298 10.6459C6.59684 10.4917 6.70499 10.3599 6.84374 10.2672C6.9825 10.1745 7.14563 10.125 7.3125 10.125C7.53628 10.125 7.75089 10.2139 7.90912 10.3721C8.06736 10.5304 8.15625 10.745 8.15625 10.9688ZM7.3125 3.375C5.76141 3.375 4.5 4.51055 4.5 5.90625V6.1875C4.5 6.33668 4.55927 6.47976 4.66476 6.58525C4.77024 6.69074 4.91332 6.75 5.0625 6.75C5.21169 6.75 5.35476 6.69074 5.46025 6.58525C5.56574 6.47976 5.625 6.33668 5.625 6.1875V5.90625C5.625 5.13281 6.38227 4.5 7.3125 4.5C8.24274 4.5 9 5.13281 9 5.90625C9 6.67969 8.24274 7.3125 7.3125 7.3125C7.16332 7.3125 7.02024 7.37176 6.91476 7.47725C6.80927 7.58274 6.75 7.72582 6.75 7.875V8.4375C6.75 8.58668 6.80927 8.72976 6.91476 8.83525C7.02024 8.94074 7.16332 9 7.3125 9C7.46169 9 7.60476 8.94074 7.71025 8.83525C7.81574 8.72976 7.875 8.58668 7.875 8.4375V8.38687C9.1575 8.15133 10.125 7.12828 10.125 5.90625C10.125 4.51055 8.8636 3.375 7.3125 3.375ZM14.625 7.3125C14.625 8.75878 14.1961 10.1726 13.3926 11.3751C12.5891 12.5776 11.4471 13.5149 10.1109 14.0684C8.77469 14.6218 7.30439 14.7666 5.88591 14.4845C4.46742 14.2023 3.16446 13.5059 2.14178 12.4832C1.11911 11.4605 0.422665 10.1576 0.140511 8.7391C-0.141644 7.32061 0.00316839 5.85031 0.556634 4.51413C1.1101 3.17794 2.04736 2.03589 3.2499 1.23238C4.45243 0.428871 5.86623 0 7.3125 0C9.25127 0.00204737 11.11 0.773127 12.481 2.14404C13.8519 3.51496 14.623 5.37373 14.625 7.3125ZM13.5 7.3125C13.5 6.08873 13.1371 4.89244 12.4572 3.87491C11.7773 2.85738 10.811 2.06431 9.68036 1.596C8.54974 1.12768 7.30564 1.00515 6.10538 1.24389C4.90512 1.48264 3.80262 2.07194 2.93728 2.93728C2.07194 3.80261 1.48264 4.90512 1.24389 6.10538C1.00515 7.30564 1.12768 8.54974 1.596 9.68035C2.06432 10.811 2.85738 11.7773 3.87491 12.4572C4.89244 13.1371 6.08873 13.5 7.3125 13.5C8.95296 13.4981 10.5257 12.8456 11.6857 11.6857C12.8456 10.5257 13.4981 8.95296 13.5 7.3125Z" fill="var(--fill-0, black)"/>
</g>
</svg>
