<svg preserveAspectRatio="none" width="100%" height="100%" overflow="visible" style="display: block;" viewBox="0 0 14.625 12.375" fill="none" xmlns="http://www.w3.org/2000/svg">
<g id="Group 497">
<path id="Vector" d="M13.5 0H1.125C0.826631 0 0.540483 0.118526 0.329505 0.329505C0.118526 0.540483 0 0.826631 0 1.125V11.25C0 11.5484 0.118526 11.8345 0.329505 12.0455C0.540483 12.2565 0.826631 12.375 1.125 12.375H13.5C13.7984 12.375 14.0845 12.2565 14.2955 12.0455C14.5065 11.8345 14.625 11.5484 14.625 11.25V1.125C14.625 0.826631 14.5065 0.540483 14.2955 0.329505C14.0845 0.118526 13.7984 0 13.5 0ZM13.5 11.25H1.125V1.125H13.5V11.25ZM10.6875 3.375C10.6875 4.27011 10.3319 5.12855 9.69899 5.76149C9.06605 6.39442 8.20761 6.75 7.3125 6.75C6.41739 6.75 5.55895 6.39442 4.92601 5.76149C4.29308 5.12855 3.9375 4.27011 3.9375 3.375C3.9375 3.22582 3.99676 3.08274 4.10225 2.97725C4.20774 2.87176 4.35082 2.8125 4.5 2.8125C4.64918 2.8125 4.79226 2.87176 4.89775 2.97725C5.00324 3.08274 5.0625 3.22582 5.0625 3.375C5.0625 3.97174 5.29955 4.54403 5.72151 4.96599C6.14347 5.38795 6.71576 5.625 7.3125 5.625C7.90924 5.625 8.48153 5.38795 8.90349 4.96599C9.32545 4.54403 9.5625 3.97174 9.5625 3.375C9.5625 3.22582 9.62176 3.08274 9.72725 2.97725C9.83274 2.87176 9.97582 2.8125 10.125 2.8125C10.2742 2.8125 10.4173 2.87176 10.5227 2.97725C10.6282 3.08274 10.6875 3.22582 10.6875 3.375Z" fill="var(--fill-0, black)"/>
</g>
</svg>
