<svg preserveAspectRatio="none" width="100%" height="100%" overflow="visible" style="display: block;" viewBox="0 0 18 18" fill="none" xmlns="http://www.w3.org/2000/svg">
<g id="Frame">
<path id="Vector" d="M9 5.625C8.33249 5.625 7.67997 5.82294 7.12495 6.19379C6.56993 6.56464 6.13735 7.09174 5.88191 7.70844C5.62646 8.32514 5.55963 9.00374 5.68985 9.65843C5.82008 10.3131 6.14151 10.9145 6.61351 11.3865C7.08552 11.8585 7.68688 12.1799 8.34157 12.3102C8.99626 12.4404 9.67486 12.3735 10.2916 12.1181C10.9083 11.8626 11.4354 11.4301 11.8062 10.875C12.1771 10.32 12.375 9.66751 12.375 9C12.3741 8.10518 12.0182 7.24728 11.3855 6.61454C10.7527 5.98181 9.89482 5.62593 9 5.625ZM9 11.25C8.55499 11.25 8.11998 11.118 7.74997 10.8708C7.37996 10.6236 7.09157 10.2722 6.92127 9.86104C6.75097 9.4499 6.70642 8.9975 6.79323 8.56105C6.88005 8.12459 7.09434 7.72368 7.40901 7.40901C7.72368 7.09434 8.12459 6.88005 8.56105 6.79323C8.9975 6.70642 9.4499 6.75097 9.86104 6.92127C10.2722 7.09157 10.6236 7.37996 10.8708 7.74997C11.118 8.11998 11.25 8.55499 11.25 9C11.25 9.59674 11.0129 10.169 10.591 10.591C10.169 11.0129 9.59674 11.25 9 11.25ZM15.1875 9.15188C15.1903 9.05063 15.1903 8.94937 15.1875 8.84812L16.2366 7.5375C16.2916 7.46869 16.3296 7.38791 16.3477 7.30169C16.3658 7.21547 16.3634 7.12621 16.3406 7.04109C16.1686 6.39464 15.9114 5.77396 15.5756 5.19539C15.5317 5.11968 15.4706 5.05527 15.3974 5.0073C15.3242 4.95933 15.2407 4.92911 15.1538 4.91906L13.4859 4.73344C13.4166 4.66031 13.3463 4.59 13.275 4.5225L13.0781 2.85047C13.068 2.76343 13.0377 2.67996 12.9896 2.60672C12.9415 2.53347 12.8769 2.47248 12.8011 2.42859C12.2223 2.09345 11.6017 1.83645 10.9554 1.6643C10.8702 1.64165 10.7809 1.63934 10.6947 1.65754C10.6085 1.67573 10.5277 1.71394 10.459 1.76906L9.15188 2.8125C9.05063 2.8125 8.94937 2.8125 8.84812 2.8125L7.5375 1.76555C7.46869 1.71054 7.38791 1.67247 7.30169 1.65439C7.21547 1.63632 7.12621 1.63875 7.04109 1.66148C6.39475 1.83377 5.7741 2.09101 5.19539 2.42648C5.11968 2.47045 5.05527 2.53148 5.0073 2.60472C4.95933 2.67796 4.92911 2.76139 4.91906 2.84836L4.73344 4.51898C4.66031 4.58883 4.59 4.65914 4.5225 4.72992L2.85047 4.92188C2.76343 4.932 2.67996 4.96232 2.60672 5.01042C2.53347 5.05852 2.47248 5.12306 2.42859 5.19891C2.09345 5.77769 1.83645 6.39833 1.6643 7.04461C1.64165 7.12978 1.63934 7.21907 1.65754 7.30529C1.67573 7.39152 1.71394 7.47226 1.76906 7.54102L2.8125 8.84812C2.8125 8.94937 2.8125 9.05063 2.8125 9.15188L1.76555 10.4625C1.71054 10.5313 1.67247 10.6121 1.65439 10.6983C1.63632 10.7845 1.63875 10.8738 1.66148 10.9589C1.83346 11.6054 2.09072 12.226 2.42648 12.8046C2.47045 12.8803 2.53148 12.9447 2.60472 12.9927C2.67796 13.0407 2.76139 13.0709 2.84836 13.0809L4.51617 13.2666C4.58602 13.3397 4.65633 13.41 4.72711 13.4775L4.92188 15.1495C4.932 15.2366 4.96232 15.32 5.01042 15.3933C5.05852 15.4665 5.12306 15.5275 5.19891 15.5714C5.77769 15.9066 6.39833 16.1636 7.04461 16.3357C7.12978 16.3583 7.21907 16.3607 7.30529 16.3425C7.39152 16.3243 7.47226 16.2861 7.54102 16.2309L8.84812 15.1875C8.94937 15.1903 9.05063 15.1903 9.15188 15.1875L10.4625 16.2366C10.5313 16.2916 10.6121 16.3296 10.6983 16.3477C10.7845 16.3658 10.8738 16.3634 10.9589 16.3406C11.6054 16.1686 12.226 15.9114 12.8046 15.5756C12.8803 15.5317 12.9447 15.4706 12.9927 15.3974C13.0407 15.3242 13.0709 15.2407 13.0809 15.1538L13.2666 13.4859C13.3397 13.4166 13.41 13.3463 13.4775 13.275L15.1495 13.0781C15.2366 13.068 15.32 13.0377 15.3933 12.9896C15.4665 12.9415 15.5275 12.8769 15.5714 12.8011C15.9066 12.2223 16.1636 11.6017 16.3357 10.9554C16.3583 10.8702 16.3607 10.7809 16.3425 10.6947C16.3243 10.6085 16.2861 10.5277 16.2309 10.459L15.1875 9.15188ZM14.0555 8.69484C14.0674 8.89811 14.0674 9.10189 14.0555 9.30516C14.0471 9.44432 14.0907 9.58163 14.1778 9.69047L15.1755 10.9371C15.0611 11.301 14.9145 11.6539 14.7375 11.9918L13.1484 12.1718C13.0101 12.1872 12.8823 12.2533 12.7898 12.3574C12.6545 12.5096 12.5103 12.6538 12.3581 12.7891C12.254 12.8816 12.1879 13.0093 12.1725 13.1477L11.996 14.7354C11.6582 14.9124 11.3052 15.059 10.9413 15.1734L9.69398 14.1757C9.59417 14.096 9.47018 14.0526 9.34242 14.0527H9.30867C9.10541 14.0646 8.90162 14.0646 8.69836 14.0527C8.5592 14.0443 8.42189 14.0879 8.31305 14.175L7.06289 15.1734C6.69905 15.059 6.3461 14.9124 6.0082 14.7354L5.8282 13.1484C5.81284 13.0101 5.7467 12.8823 5.64258 12.7898C5.49036 12.6545 5.3462 12.5103 5.21086 12.3581C5.11842 12.254 4.99065 12.1879 4.85227 12.1725L3.26461 11.9953C3.08756 11.6575 2.94096 11.3045 2.82656 10.9406L3.8243 9.69328C3.91142 9.58444 3.95502 9.44713 3.94664 9.30797C3.93469 9.10471 3.93469 8.90092 3.94664 8.69766C3.95502 8.5585 3.91142 8.42118 3.8243 8.31234L2.82656 7.06289C2.94105 6.69905 3.08764 6.3461 3.26461 6.0082L4.85156 5.8282C4.98995 5.81284 5.11772 5.7467 5.21016 5.64258C5.3455 5.49036 5.48965 5.3462 5.64188 5.21086C5.74641 5.11836 5.81283 4.9903 5.8282 4.85156L6.00469 3.26461C6.34254 3.08756 6.6955 2.94096 7.05938 2.82656L8.30672 3.8243C8.41556 3.91142 8.55287 3.95502 8.69203 3.94664C8.89529 3.93469 9.09908 3.93469 9.30234 3.94664C9.4415 3.95502 9.57882 3.91142 9.68766 3.8243L10.9371 2.82656C11.301 2.94105 11.6539 3.08764 11.9918 3.26461L12.1718 4.85156C12.1872 4.98995 12.2533 5.11772 12.3574 5.21016C12.5096 5.3455 12.6538 5.48965 12.7891 5.64188C12.8816 5.746 13.0093 5.81214 13.1477 5.8275L14.7354 6.00398C14.9124 6.34184 15.059 6.6948 15.1734 7.05867L14.1757 8.30602C14.0877 8.41577 14.0441 8.5545 14.0534 8.69484H14.0555Z" fill="var(--fill-0, black)"/>
</g>
</svg>
