<svg width="312" height="262" viewBox="0 0 312 262" fill="none" xmlns="http://www.w3.org/2000/svg">
<path d="M235.516 53.2088C235.516 42.6673 234.357 28.172 250.594 16.3128C266.831 4.45365 281.908 9.72434 293.506 17.6305C305.104 25.5367 308.583 37.3962 310.903 57.1619C313.222 76.9276 308.583 99.3287 300.465 116.459C292.346 133.589 274.949 148.084 264.511 150.719C254.073 153.355 252.913 148.084 252.913 146.766C252.913 145.449 252.912 141.496 257.552 136.225C262.192 130.954 267.992 127 271.47 115.141C274.949 103.282 273.791 92.74 271.47 88.7868C269.15 84.8337 255.233 87.4691 248.274 82.1982C241.316 76.9274 235.517 63.7503 235.516 53.2088Z" fill="#0C1950"/>
<path d="M1.24068 57.1614C-2.23877 38.7136 7.03959 24.2183 18.6376 14.9946C30.2355 5.77085 52.2715 0.5 67.3488 0.5C82.4261 0.5 105.622 4.45314 111.421 7.08856C117.22 9.72399 117.22 12.3594 111.421 12.3594C105.622 12.3594 82.426 11.0417 76.6271 12.3594C70.8282 13.6771 66.1641 17.0711 66.189 24.2186C66.2139 31.366 115.517 194.937 125.338 191.568C135.16 188.199 138.096 137.542 138.096 117.776C138.096 98.0109 129.978 80.8806 125.338 63.75C120.699 46.6193 126.498 25.5358 138.096 14.9946C149.694 4.45338 170.57 7.0886 184.488 21.5832C198.405 36.0777 249.436 199.474 251.756 206.063C254.075 212.652 257.808 238.656 240.158 252.183C222.508 265.71 200.725 262.725 191.447 249.547C182.168 236.37 170.478 200.111 160.132 167.849C151.038 201.025 143.895 225.829 128.818 244.277C113.74 262.725 96.3436 263.101 87.0653 260.089C77.7869 257.077 66.189 246.912 60.39 231.099C54.5911 215.287 4.72014 75.6092 1.24068 57.1614Z" fill="#0C1950" stroke="white"/>
</svg>
