<svg preserveAspectRatio="none" width="100%" height="100%" overflow="visible" style="display: block;" viewBox="0 0 1077 712" fill="none" xmlns="http://www.w3.org/2000/svg">
<g id="Group 394">
<path id="Vector 2" d="M813.866 143.788C813.864 115.031 809.85 75.4882 866.079 43.1368C922.309 10.7854 974.522 25.1636 1014.69 46.7315C1054.85 68.2993 1066.9 100.652 1074.93 154.572C1082.96 208.492 1066.9 269.602 1038.78 316.332C1010.67 363.063 950.423 402.605 914.276 409.794C878.128 416.983 874.112 402.605 874.112 399.01C874.112 395.415 874.109 384.632 890.178 370.253C906.246 355.873 926.331 345.089 938.376 312.737C950.421 280.385 946.412 251.628 938.376 240.844C930.339 230.06 882.146 237.249 858.048 222.87C833.95 208.491 813.868 172.545 813.866 143.788Z" fill="var(--fill-0, #193495)" fill-opacity="0.09"/>
<path id="Vector 1" d="M2.56502 154.571C-9.48444 104.246 22.6468 64.7029 62.811 39.5408C102.975 14.3787 179.286 0 231.5 3.98598e-10C283.713 8.2224e-10 364.041 10.784 384.123 17.9734C404.205 25.1628 404.205 32.3521 384.123 32.3521C364.041 32.3521 283.713 28.7574 263.631 32.3521C243.549 35.9468 227.397 45.2056 227.483 64.7036C227.57 84.2016 398.308 530.417 432.32 521.228C466.331 512.038 476.5 373.845 476.5 319.926C476.5 266.007 448.385 219.276 432.32 172.544C416.254 125.812 436.336 68.2969 476.5 39.5408C516.664 10.7847 588.959 17.9735 637.156 57.5142C685.353 97.0549 862.074 542.795 870.107 560.769C878.14 578.744 891.066 649.682 829.943 686.583C768.82 723.485 693.385 715.342 661.254 679.394C629.123 643.446 588.64 544.532 552.812 456.524C521.317 547.027 496.582 614.69 444.369 665.015C392.156 715.341 331.91 716.368 299.778 708.151C267.647 699.935 227.483 672.204 207.401 629.068C187.319 585.932 14.6145 204.896 2.56502 154.571Z" fill="var(--fill-0, #193495)" fill-opacity="0.09"/>
</g>
</svg>
