<svg preserveAspectRatio="none" width="100%" height="100%" overflow="visible" style="display: block;" viewBox="0 0 35 36.7783" fill="none" xmlns="http://www.w3.org/2000/svg">
<g id="Frame">
<path id="Vector" d="M32.031 16.5L25.8787 22.0785L27.7531 30.4211C27.8565 30.874 27.8299 31.349 27.6766 31.7859C27.5232 32.2229 27.2501 32.6024 26.8917 32.8763C26.5332 33.1503 26.1056 33.3065 25.6627 33.3251C25.2199 33.3438 24.7817 33.2241 24.4035 32.9813L17.4992 28.5161L10.5908 32.9813C10.2127 33.2228 9.77499 33.3413 9.33289 33.3219C8.89079 33.3025 8.46402 33.1462 8.10633 32.8724C7.74864 32.5987 7.47602 32.2199 7.3228 31.7837C7.16958 31.3475 7.14261 30.8734 7.24528 30.4211L9.12653 22.0785L2.97418 16.5C2.63963 16.1961 2.39767 15.7955 2.27853 15.348C2.15939 14.9005 2.16835 14.4261 2.30428 13.9839C2.44021 13.5418 2.6971 13.1515 3.04285 12.8618C3.38861 12.5722 3.80791 12.396 4.2484 12.3552L12.3148 11.6714L15.4265 3.7583C15.595 3.32704 15.8816 2.95815 16.2501 2.69853C16.6185 2.43891 17.0521 2.30029 17.4958 2.30029C17.9394 2.30029 18.373 2.43891 18.7414 2.69853C19.1099 2.95815 19.3966 3.32704 19.565 3.7583L22.6754 11.6714L30.7418 12.3552C31.1831 12.3945 31.6036 12.5697 31.9507 12.8589C32.2977 13.1482 32.5557 13.5386 32.6925 13.9813C32.8293 14.424 32.8387 14.8993 32.7196 15.3476C32.6004 15.7959 32.3581 16.1972 32.0228 16.5014L32.031 16.5Z" fill="var(--fill-0, #FFC12F)"/>
</g>
</svg>
