<svg preserveAspectRatio="none" width="100%" height="100%" overflow="visible" style="display: block;" viewBox="0 0 25 25" fill="none" xmlns="http://www.w3.org/2000/svg">
<g id="Frame">
<path id="Vector" d="M16.1777 19.7598C16.2503 19.8324 16.3079 19.9185 16.3472 20.0134C16.3865 20.1082 16.4067 20.2098 16.4067 20.3125C16.4067 20.4152 16.3865 20.5168 16.3472 20.6116C16.3079 20.7065 16.2503 20.7926 16.1777 20.8652C16.1051 20.9378 16.019 20.9954 15.9241 21.0347C15.8293 21.074 15.7277 21.0942 15.625 21.0942C15.5223 21.0942 15.4207 21.074 15.3259 21.0347C15.231 20.9954 15.1449 20.9378 15.0723 20.8652L7.25977 13.0527C7.18713 12.9802 7.1295 12.894 7.09019 12.7992C7.05087 12.7043 7.03064 12.6027 7.03064 12.5C7.03064 12.3973 7.05087 12.2957 7.09019 12.2008C7.1295 12.106 7.18713 12.0198 7.25977 11.9473L15.0723 4.13477C15.2189 3.98817 15.4177 3.90582 15.625 3.90582C15.8323 3.90582 16.0311 3.98817 16.1777 4.13477C16.3243 4.28136 16.4067 4.48018 16.4067 4.6875C16.4067 4.89482 16.3243 5.09364 16.1777 5.24023L8.91699 12.5L16.1777 19.7598Z" fill="var(--fill-0, #0C1950)"/>
</g>
</svg>
