<svg preserveAspectRatio="none" width="100%" height="100%" overflow="visible" style="display: block;" viewBox="0 0 25 25" fill="none" xmlns="http://www.w3.org/2000/svg">
<g id="Frame">
<path id="Vector" d="M17.7407 13.0527L9.92817 20.8652C9.85558 20.9378 9.76941 20.9953 9.67457 21.0346C9.57973 21.0739 9.47809 21.0941 9.37543 21.0941C9.27278 21.0941 9.17113 21.0739 9.0763 21.0346C8.98146 20.9953 8.89529 20.9378 8.8227 20.8652C8.75011 20.7926 8.69254 20.7064 8.65325 20.6116C8.61397 20.5167 8.59375 20.4151 8.59375 20.3124C8.59375 20.2098 8.61397 20.1081 8.65325 20.0133C8.69254 19.9185 8.75011 19.8323 8.8227 19.7597L16.0834 12.4999L8.8227 5.24018C8.67611 5.09359 8.59375 4.89476 8.59375 4.68745C8.59375 4.48013 8.67611 4.28131 8.8227 4.13471C8.96929 3.98812 9.16812 3.90576 9.37543 3.90576C9.58275 3.90576 9.78157 3.98812 9.92817 4.13471L17.7407 11.9472C17.8133 12.0198 17.8709 12.1059 17.9102 12.2008C17.9496 12.2956 17.9698 12.3973 17.9698 12.4999C17.9698 12.6026 17.9496 12.7043 17.9102 12.7991C17.8709 12.894 17.8133 12.9801 17.7407 13.0527Z" fill="var(--fill-0, #193495)"/>
</g>
</svg>
